<svg id="logo-ccs" xmlns="http://www.w3.org/2000/svg" width="260.157" height="56.289" viewBox="0 0 260.157 56.289">
  <g id="Сгруппировать_32357" data-name="Сгруппировать 32357" transform="translate(60.648 0.086)">
    <path id="Контур_13685" data-name="Контур 13685" d="M443.442,1629.818h6.885c0,1.336,0,2.617-.056,4.066,1.343-2.395,4.086-5.068,9.572-5.013,10.019.056,11.923,7.686,11.923,13.088v18.435h-7.333v-16.6c0-4.567-1.511-8.076-6.661-8.076-5.206.056-7,3.509-7,7.8v16.875h-7.333Z" transform="translate(-443.442 -1628.87)" fill="#fff"/>
  </g>
  <g id="Сгруппировать_32358" data-name="Сгруппировать 32358" transform="translate(90.965 0.087)">
    <path id="Контур_13686" data-name="Контур 13686" d="M586.7,1638.063c-.056-1.615-.9-3.286-3.751-3.286-2.463,0-3.638,1.559-3.638,3.063.056,1.949,2.295,3.007,5.206,3.843,4.926,1.337,10.244,2.785,10.3,9.357.112,6.293-5.206,10.3-11.643,10.3-4.758,0-11.2-2.45-11.755-9.858h7.333a4.286,4.286,0,0,0,4.534,3.955c2.295,0,4.254-1.5,4.2-3.564,0-2.617-2.295-3.342-7.949-5.291-4.142-1.281-7.5-3.565-7.557-7.964,0-6.015,5.094-9.747,11.027-9.747,4.143,0,10.3,1.838,10.916,9.189Z" transform="translate(-571.42 -1628.874)" fill="#fff"/>
  </g>
  <g id="Сгруппировать_32359" data-name="Сгруппировать 32359" transform="translate(116.357 0.087)">
    <path id="Контур_13687" data-name="Контур 13687" d="M686,1647.531c.336,4.9,4.7,7.63,8.9,7.574a7.924,7.924,0,0,0,7.389-4.121h7.557a17.274,17.274,0,0,1-6.213,7.686,15.28,15.28,0,0,1-8.788,2.673,16.235,16.235,0,0,1-.112-32.47,15.728,15.728,0,0,1,11.475,4.678,16.456,16.456,0,0,1,4.534,13.979Zm17.521-5.569c-.28-2.9-3.359-6.962-8.732-6.906-5.429,0-8.4,3.9-8.676,6.906Z" transform="translate(-678.612 -1628.874)" fill="#fff"/>
  </g>
  <g id="Сгруппировать_32360" data-name="Сгруппировать 32360" transform="translate(150.62 0.086)">
    <path id="Контур_13688" data-name="Контур 13688" d="M823.249,1629.818h6.885c0,1.336,0,2.617-.056,4.066,1.343-2.395,4.086-5.068,9.572-5.013,10.019.056,11.923,7.686,11.923,13.088v18.435H844.24v-16.6c0-4.567-1.511-8.076-6.661-8.076-5.206.056-7,3.509-7,7.8v16.875h-7.333Z" transform="translate(-823.249 -1628.87)" fill="#fff"/>
  </g>
  <g id="Сгруппировать_32361" data-name="Сгруппировать 32361" transform="translate(180.936 0.087)">
    <path id="Контур_13689" data-name="Контур 13689" d="M966.509,1638.063c-.056-1.615-.9-3.286-3.751-3.286-2.463,0-3.638,1.559-3.638,3.063.056,1.949,2.3,3.007,5.206,3.843,4.926,1.337,10.243,2.785,10.3,9.357.112,6.293-5.206,10.3-11.643,10.3-4.758,0-11.195-2.45-11.755-9.858h7.333a4.285,4.285,0,0,0,4.534,3.955c2.3,0,4.254-1.5,4.2-3.564,0-2.617-2.295-3.342-7.949-5.291-4.142-1.281-7.5-3.565-7.556-7.964,0-6.015,5.094-9.747,11.027-9.747,4.142,0,10.3,1.838,10.915,9.189Z" transform="translate(-951.227 -1628.874)" fill="#fff"/>
  </g>
  <g id="Сгруппировать_32362" data-name="Сгруппировать 32362" transform="translate(206.329 1.034)">
    <path id="Контур_13690" data-name="Контур 13690" d="M1086.854,1663.467h-6.885V1659.4c-1.288,2.4-4.03,5.068-9.572,5.012-10.076-.056-11.979-7.686-11.979-13.032v-18.49h7.333v16.653c0,4.511,1.511,8.075,6.717,8.02,5.262,0,7.053-3.453,7.053-7.8v-16.875h7.332Z" transform="translate(-1058.419 -1632.891)" fill="#fff"/>
  </g>
  <g id="Сгруппировать_32363" data-name="Сгруппировать 32363" transform="translate(236.757 0.087)">
    <path id="Контур_13691" data-name="Контур 13691" d="M1202.151,1638.063c-.057-1.615-.9-3.286-3.751-3.286-2.463,0-3.638,1.559-3.638,3.063.056,1.949,2.3,3.007,5.206,3.843,4.926,1.337,10.243,2.785,10.3,9.357.112,6.293-5.206,10.3-11.643,10.3-4.758,0-11.195-2.45-11.755-9.858h7.333a4.286,4.286,0,0,0,4.534,3.955c2.3,0,4.254-1.5,4.2-3.564,0-2.617-2.295-3.342-7.948-5.291-4.142-1.281-7.5-3.565-7.556-7.964,0-6.015,5.094-9.747,11.027-9.747,4.142,0,10.3,1.838,10.915,9.189Z" transform="translate(-1186.869 -1628.874)" fill="#fff"/>
  </g>
  <g id="Сгруппировать_32364" data-name="Сгруппировать 32364">
    <path id="Контур_13692" data-name="Контур 13692" d="M220.177,1644.8a16.368,16.368,0,1,1-6.363-12.88,20.375,20.375,0,0,0-3.428,6.043,9.463,9.463,0,1,0,2.93,7.139l.008-.3a16.368,16.368,0,1,1,6.363,12.881,20.368,20.368,0,0,0,3.427-6.044,9.461,9.461,0,1,0-2.936-7.007Z" transform="translate(-187.423 -1628.504)" fill="#fff"/>
  </g>
  <g id="Сгруппировать_32365" data-name="Сгруппировать 32365" transform="translate(39 12.982)">
    <path id="Контур_13693" data-name="Контур 13693" d="M358.663,1686.867a3.3,3.3,0,1,1-3.3-3.286,3.294,3.294,0,0,1,3.3,3.286" transform="translate(-352.058 -1683.581)" fill="#eb2a31"/>
  </g>
  <rect id="Прямоугольник_2683" data-name="Прямоугольник 2683" width="58.655" height="2.741" transform="translate(0 47.994)" fill="#eb2a31"/>
  <g id="Сгруппировать_32366" data-name="Сгруппировать 32366" transform="translate(67.408 38.676)">
    <path id="Контур_13694" data-name="Контур 13694" d="M488.484,1805.693a8.724,8.724,0,0,1-7.883,4.518,8.909,8.909,0,0,1-8.621-8.738,8.835,8.835,0,0,1,16.619-4.22h-3a6.092,6.092,0,0,0-4.794-2.385,6.407,6.407,0,0,0-6.339,6.376c0,3.555,2.7,6.7,6.2,6.7a6.118,6.118,0,0,0,4.748-2.248Z" transform="translate(-471.98 -1792.597)" fill="#a8a9ab"/>
    <path id="Контур_13695" data-name="Контур 13695" d="M556.049,1810.93v-16.971h2.4v16.971Z" transform="translate(-536.134 -1793.638)" fill="#a8a9ab"/>
    <path id="Контур_13696" data-name="Контур 13696" d="M588.342,1823.969a6.877,6.877,0,0,1-6.8-6.628,6.893,6.893,0,0,1,13.784.046A6.835,6.835,0,0,1,588.342,1823.969Zm.069-11.192a4.507,4.507,0,1,0,4.518,4.472A4.48,4.48,0,0,0,588.411,1812.777Z" transform="translate(-555.588 -1806.355)" fill="#a8a9ab"/>
    <path id="Контур_13697" data-name="Контур 13697" d="M663.256,1824.764v-1.376h-.046a4.228,4.228,0,0,1-3.757,1.7c-2.743,0-5.325-1.468-5.325-5.94v-7.087h2.4v6.9c0,2.66.991,3.945,3.181,3.945,2.213,0,3.343-1.537,3.343-3.99v-6.857h2.4v12.705Z" transform="translate(-610.979 -1807.471)" fill="#a8a9ab"/>
    <path id="Контур_13698" data-name="Контур 13698" d="M728.48,1810.93v-1.812h-.046a5.44,5.44,0,0,1-4.518,2.133,6.686,6.686,0,0,1-.069-13.371,5.548,5.548,0,0,1,4.4,1.9h.046v-5.825h2.4v16.971Zm-4.449-10.871a4.507,4.507,0,1,0,4.449,4.633A4.378,4.378,0,0,0,724.031,1800.059Z" transform="translate(-659.169 -1793.638)" fill="#a8a9ab"/>
    <path id="Контур_13699" data-name="Контур 13699" d="M828.849,1797.322a2.275,2.275,0,0,0-2.4-2.454,2.368,2.368,0,0,0-2.282,2.316c0,1.193.807,1.881,2.466,2.408,3.688,1.17,5.048,2.546,5.048,5.481a4.968,4.968,0,0,1-5.232,5.137,5.1,5.1,0,0,1-5.255-5.344h2.489c.023,1.835,1.106,3.073,2.766,3.073a2.668,2.668,0,0,0,2.743-2.867c0-1.238-.553-2.018-2.374-2.638-4.218-1.422-5.14-2.8-5.14-5.206a4.687,4.687,0,0,1,4.771-4.632,4.562,4.562,0,0,1,4.887,4.724Z" transform="translate(-738.472 -1792.597)" fill="#a8a9ab"/>
    <path id="Контур_13700" data-name="Контур 13700" d="M886.571,1823.969a6.877,6.877,0,0,1-6.8-6.628,6.893,6.893,0,0,1,13.784.046A6.835,6.835,0,0,1,886.571,1823.969Zm.069-11.192a4.507,4.507,0,1,0,4.518,4.472A4.48,4.48,0,0,0,886.64,1812.777Z" transform="translate(-783.17 -1806.355)" fill="#a8a9ab"/>
    <path id="Контур_13701" data-name="Контур 13701" d="M953.428,1810.93v-16.971h2.4v16.971Z" transform="translate(-839.378 -1793.638)" fill="#a8a9ab"/>
    <path id="Контур_13702" data-name="Контур 13702" d="M990.773,1824.764v-1.376h-.046a4.228,4.228,0,0,1-3.757,1.7c-2.743,0-5.325-1.468-5.325-5.94v-7.087h2.4v6.9c0,2.66.991,3.945,3.181,3.945,2.213,0,3.342-1.537,3.342-3.99v-6.857h2.4v12.705Z" transform="translate(-860.911 -1807.471)" fill="#a8a9ab"/>
    <path id="Контур_13703" data-name="Контур 13703" d="M1043.7,1810.93V1800.4h-1.729v-2.179h1.729v-4.266h2.4v4.266h2.1v2.179h-2.1v10.527Z" transform="translate(-906.947 -1793.638)" fill="#a8a9ab"/>
    <path id="Контур_13704" data-name="Контур 13704" d="M1080.21,1796.757v-2.8h2.4v2.8Zm0,14.174v-12.706h2.4v12.706Z" transform="translate(-936.127 -1793.638)" fill="#a8a9ab"/>
    <path id="Контур_13705" data-name="Контур 13705" d="M1112.5,1823.969a6.877,6.877,0,0,1-6.8-6.628,6.893,6.893,0,0,1,13.784.046A6.835,6.835,0,0,1,1112.5,1823.969Zm.069-11.192a4.507,4.507,0,1,0,4.518,4.472A4.48,4.48,0,0,0,1112.572,1812.777Z" transform="translate(-955.581 -1806.355)" fill="#a8a9ab"/>
    <path id="Контур_13706" data-name="Контур 13706" d="M1188.206,1823.647v-6.926c0-2.683-1.06-3.945-3.181-3.945-2.1,0-3.365,1.537-3.365,3.922v6.949h-2.4v-12.706h2.236v1.353h.046a4.478,4.478,0,0,1,3.734-1.7c3.066,0,5.325,1.927,5.325,5.435v7.614Z" transform="translate(-1011.715 -1806.355)" fill="#a8a9ab"/>
    <path id="Контур_13707" data-name="Контур 13707" d="M1246.768,1814.313a1.563,1.563,0,0,0-1.637-1.537,1.382,1.382,0,0,0-1.5,1.353c0,1.078,1.107,1.4,2.374,1.789,1.8.55,3.458,1.629,3.458,3.991a3.981,3.981,0,0,1-4.287,4.059,4.341,4.341,0,0,1-4.518-4.5h2.4c.115,1.537.9,2.316,2.167,2.316a1.7,1.7,0,0,0,1.844-1.743c0-.871-.669-1.445-2.167-1.926-3.135-.986-3.665-2.339-3.665-3.784a3.836,3.836,0,0,1,4.011-3.738,3.765,3.765,0,0,1,3.919,3.716Z" transform="translate(-1058.568 -1806.355)" fill="#a8a9ab"/>
  </g>
</svg>
